<svg xmlns="http://www.w3.org/2000/svg" xmlns:xlink="http://www.w3.org/1999/xlink" width="500" zoomAndPan="magnify" viewBox="0 0 375 374.999991" height="500" preserveAspectRatio="xMidYMid meet" version="1.0"><defs><g/><clipPath id="6b3a58a648"><path d="M 141 63 L 279.007812 63 L 279.007812 196.011719 L 141 196.011719 Z M 141 63 " clip-rule="nonzero"/></clipPath><clipPath id="66c69b25df"><path d="M 96.007812 13.011719 L 234 13.011719 L 234 146 L 96.007812 146 Z M 96.007812 13.011719 " clip-rule="nonzero"/></clipPath></defs><g clip-path="url(#6b3a58a648)"><path fill="#2196f3" d="M 210.382812 63.335938 C 248.28125 63.335938 279.007812 90.984375 279.007812 125.097656 C 279.007812 141.285156 272.03125 155.96875 260.710938 166.984375 C 260.730469 168.453125 260.707031 182.285156 279.007812 191.433594 C 279.007812 191.433594 274.433594 196.011719 262.996094 196.011719 C 237.832031 196.011719 228.683594 184.574219 228.683594 184.574219 L 228.6875 184.574219 C 222.847656 186.023438 216.730469 186.859375 210.382812 186.859375 C 172.484375 186.859375 141.757812 159.207031 141.757812 125.097656 C 141.757812 90.984375 172.484375 63.335938 210.382812 63.335938 Z M 210.382812 63.335938 " fill-opacity="1" fill-rule="nonzero"/></g><path fill="#bbdefb" d="M 173.78125 99.933594 L 246.980469 99.933594 L 246.980469 109.082031 L 173.78125 109.082031 Z M 173.78125 122.808594 L 246.980469 122.808594 L 246.980469 131.957031 L 173.78125 131.957031 Z M 182.933594 145.683594 L 228.683594 145.683594 L 228.683594 154.835938 L 182.933594 154.835938 Z M 182.933594 145.683594 " fill-opacity="1" fill-rule="nonzero"/><path fill="#1e88e5" d="M 237.253906 99.933594 C 240.53125 92.101562 242.40625 83.644531 242.40625 74.773438 C 242.40625 73.289062 242.261719 71.84375 242.164062 70.386719 C 232.65625 65.90625 221.859375 63.335938 210.382812 63.335938 C 172.484375 63.335938 141.757812 90.984375 141.757812 125.097656 C 141.757812 132.570312 143.304688 139.691406 146.003906 146.320312 C 147.105469 145.625 148.128906 144.917969 149.035156 144.203125 C 154.246094 145.1875 159.476562 145.683594 164.632812 145.683594 C 181.78125 145.683594 197.613281 140.566406 210.476562 131.960938 L 210.382812 131.960938 L 210.382812 122.808594 L 221.710938 122.808594 C 225.914062 118.65625 229.617188 114.0625 232.648438 109.085938 L 228.683594 109.085938 L 228.683594 99.933594 Z M 237.253906 99.933594 " fill-opacity="1" fill-rule="nonzero"/><path fill="#64b5f6" d="M 173.78125 109.082031 L 232.648438 109.082031 C 234.429688 106.15625 235.933594 103.089844 237.253906 99.933594 L 173.78125 99.933594 Z M 173.78125 131.957031 L 210.433594 131.957031 C 214.5 129.238281 218.261719 126.175781 221.679688 122.808594 L 173.78125 122.808594 Z M 173.78125 131.957031 " fill-opacity="1" fill-rule="nonzero"/><g clip-path="url(#66c69b25df)"><path fill="#ffb300" d="M 164.632812 13.011719 C 126.734375 13.011719 96.007812 40.660156 96.007812 74.773438 C 96.007812 90.957031 102.984375 105.644531 114.300781 116.660156 C 114.285156 118.128906 114.308594 131.960938 96.007812 141.109375 C 96.007812 141.109375 100.582031 145.683594 112.019531 145.683594 C 137.183594 145.683594 146.332031 134.246094 146.332031 134.246094 L 146.328125 134.246094 C 152.164062 135.699219 158.28125 136.535156 164.632812 136.535156 C 202.53125 136.535156 233.257812 108.882812 233.257812 74.773438 C 233.257812 40.660156 202.53125 13.011719 164.632812 13.011719 Z M 164.632812 13.011719 " fill-opacity="1" fill-rule="nonzero"/></g><path fill="#ffecb3" d="M 128.03125 49.613281 L 201.230469 49.613281 L 201.230469 58.761719 L 128.03125 58.761719 Z M 128.03125 72.484375 L 201.230469 72.484375 L 201.230469 81.636719 L 128.03125 81.636719 Z M 128.03125 95.359375 L 182.933594 95.359375 L 182.933594 104.511719 L 128.03125 104.511719 Z M 128.03125 95.359375 " fill-opacity="1" fill-rule="nonzero"/><g fill="#272830" fill-opacity="1"><g transform="translate(67.412729, 267.88517)"><g><path d="M 51.765625 -44.5625 L 43.816406 -13.664062 L 35.277344 -44.5625 L 25.769531 -44.5625 L 17.304688 -13.515625 L 9.285156 -44.5625 L -1.039062 -44.5625 L 11.140625 0 L 22.429688 0 L 30.523438 -31.339844 L 38.621094 0 L 49.90625 0 L 62.089844 -44.5625 Z M 51.765625 -44.5625 "/></g></g></g><g fill="#272830" fill-opacity="1"><g transform="translate(127.267334, 267.88517)"><g><path d="M 34.609375 -14.929688 C 34.609375 -24.210938 28.222656 -30.375 18.640625 -30.375 C 9.0625 -30.375 2.300781 -24.136719 2.300781 -14.855469 C 2.300781 -5.570312 8.988281 0.59375 18.9375 0.59375 C 27.183594 0.59375 32.679688 -3.789062 34.164062 -10.25 L 25.027344 -10.25 C 24.210938 -7.871094 22.058594 -6.460938 18.789062 -6.460938 C 14.480469 -6.460938 12.253906 -9.0625 11.882812 -13.292969 L 34.609375 -13.292969 Z M 18.789062 -23.097656 C 21.984375 -23.097656 23.839844 -21.613281 24.804688 -19.011719 L 12.476562 -19.011719 C 13.441406 -21.539062 15.449219 -23.097656 18.789062 -23.097656 Z M 18.789062 -23.097656 "/></g></g></g><g fill="#272830" fill-opacity="1"><g transform="translate(162.912649, 267.88517)"><g><path d="M 25.621094 0.59375 C 34.460938 0.59375 42.109375 -4.382812 45.898438 -11.660156 L 37.429688 -16.042969 C 35.277344 -11.808594 30.894531 -8.988281 25.621094 -8.988281 C 18.121094 -8.988281 12.402344 -14.78125 12.402344 -22.28125 C 12.402344 -29.78125 18.121094 -35.574219 25.621094 -35.574219 C 30.894531 -35.574219 35.277344 -32.753906 37.429688 -28.519531 L 45.898438 -32.902344 C 42.109375 -40.179688 34.460938 -45.15625 25.621094 -45.15625 C 12.996094 -45.15625 2.746094 -34.90625 2.746094 -22.28125 C 2.746094 -9.65625 12.996094 0.59375 25.621094 0.59375 Z M 25.621094 0.59375 "/></g></g></g><g fill="#272830" fill-opacity="1"><g transform="translate(209.548686, 267.88517)"><g><path d="M 22.207031 -30.300781 C 18.9375 -30.300781 15.96875 -28.816406 13.886719 -26.363281 L 13.886719 -50.875 L 4.382812 -50.875 L 4.382812 0 L 13.886719 0 L 13.886719 -16.785156 C 13.886719 -19.382812 16.042969 -21.910156 18.9375 -21.910156 C 21.613281 -21.910156 23.46875 -19.828125 23.46875 -17.230469 L 23.46875 0 L 32.976562 0 L 32.976562 -18.789062 C 32.976562 -25.324219 28.222656 -30.300781 22.207031 -30.300781 Z M 22.207031 -30.300781 "/></g></g></g><g fill="#272830" fill-opacity="1"><g transform="translate(245.045475, 267.88517)"><g><path d="M 37.503906 -7.722656 C 36.242188 -7.722656 34.90625 -8.167969 34.90625 -10.621094 L 34.90625 -29.707031 L 25.472656 -29.707031 L 25.472656 -27.109375 C 23.246094 -29.113281 20.421875 -30.300781 17.007812 -30.300781 C 8.761719 -30.300781 2.300781 -23.46875 2.300781 -14.855469 C 2.300781 -6.238281 8.761719 0.59375 17.007812 0.59375 C 21.316406 0.59375 24.804688 -1.335938 27.183594 -4.457031 C 29.039062 -1.410156 32.304688 0.59375 36.316406 0.59375 C 37.28125 0.59375 38.171875 0.296875 38.84375 0 L 38.84375 -7.722656 Z M 18.863281 -7.796875 C 14.929688 -7.796875 11.808594 -10.917969 11.808594 -14.855469 C 11.808594 -18.789062 14.929688 -21.910156 18.863281 -21.910156 C 22.726562 -21.910156 25.917969 -18.789062 25.917969 -14.855469 C 25.917969 -10.917969 22.726562 -7.796875 18.863281 -7.796875 Z M 18.863281 -7.796875 "/></g></g></g><g fill="#272830" fill-opacity="1"><g transform="translate(283.80978, 267.88517)"><g><path d="M 22.28125 -22.355469 L 22.28125 -29.707031 L 15.226562 -29.707031 L 15.226562 -41.144531 L 5.792969 -41.144531 L 5.792969 -29.707031 L 0.816406 -29.707031 L 0.816406 -22.355469 L 5.792969 -22.355469 L 5.792969 -10.621094 C 5.792969 -4.308594 11.140625 0.59375 17.453125 0.59375 C 19.457031 0.59375 21.464844 0.148438 22.207031 -0.371094 L 22.207031 -7.722656 L 18.640625 -7.722656 C 16.636719 -7.722656 15.226562 -9.285156 15.226562 -11.734375 L 15.226562 -22.355469 Z M 22.28125 -22.355469 "/></g></g></g><g fill="#737373" fill-opacity="1"><g transform="translate(55.697029, 305.303497)"><g><path d="M 0.304688 0 L 2.960938 0 L 4.042969 -3 L 10.472656 -3 L 11.554688 0 L 14.230469 0 L 9.167969 -14.457031 L 5.371094 -14.457031 Z M 4.59375 -4.921875 L 7.167969 -12.230469 L 7.351562 -12.230469 L 9.921875 -4.921875 Z M 4.59375 -4.921875 "/></g></g></g><g fill="#737373" fill-opacity="1"><g transform="translate(74.071079, 305.303497)"><g><path d="M 1.46875 0 L 4.042969 0 L 4.042969 -4.921875 L 7.453125 -4.921875 C 11.027344 -4.921875 13.066406 -6.859375 13.066406 -9.699219 C 13.085938 -12.515625 11.046875 -14.457031 7.472656 -14.457031 L 1.46875 -14.457031 Z M 4.042969 -6.839844 L 4.042969 -12.535156 L 7.207031 -12.535156 C 9.351562 -12.535156 10.496094 -11.351562 10.496094 -9.699219 C 10.496094 -8.003906 9.351562 -6.839844 7.207031 -6.839844 Z M 4.042969 -6.839844 "/></g></g></g><g fill="#737373" fill-opacity="1"><g transform="translate(91.710271, 305.303497)"><g><path d="M 1.46875 0 L 4.042969 0 L 4.042969 -4.921875 L 7.453125 -4.921875 C 11.027344 -4.921875 13.066406 -6.859375 13.066406 -9.699219 C 13.085938 -12.515625 11.046875 -14.457031 7.472656 -14.457031 L 1.46875 -14.457031 Z M 4.042969 -6.839844 L 4.042969 -12.535156 L 7.207031 -12.535156 C 9.351562 -12.535156 10.496094 -11.351562 10.496094 -9.699219 C 10.496094 -8.003906 9.351562 -6.839844 7.207031 -6.839844 Z M 4.042969 -6.839844 "/></g></g></g><g fill="#737373" fill-opacity="1"><g transform="translate(109.349461, 305.303497)"><g><path d="M 1.46875 0 L 11.230469 0 L 11.230469 -2.226562 L 4.042969 -2.226562 L 4.042969 -14.457031 L 1.46875 -14.457031 Z M 1.46875 0 "/></g></g></g><g fill="#737373" fill-opacity="1"><g transform="translate(124.988243, 305.303497)"><g><path d="M 1.46875 0 L 4.042969 0 L 4.042969 -14.457031 L 1.46875 -14.457031 Z M 1.46875 0 "/></g></g></g><g fill="#737373" fill-opacity="1"><g transform="translate(134.360381, 305.303497)"><g><path d="M 8.617188 0.386719 C 12.351562 0.386719 15.332031 -1.878906 15.804688 -5.003906 L 13.394531 -5.308594 C 12.964844 -3.308594 10.984375 -1.757812 8.699219 -1.757812 C 5.613281 -1.757812 3.472656 -4 3.472656 -7.226562 C 3.472656 -10.472656 5.59375 -12.699219 8.699219 -12.699219 C 10.964844 -12.699219 12.945312 -11.128906 13.375 -9.066406 L 15.78125 -9.351562 C 15.273438 -12.535156 12.292969 -14.863281 8.617188 -14.863281 C 4.125 -14.863281 0.898438 -11.71875 0.898438 -7.226562 C 0.898438 -2.757812 4.125 0.386719 8.617188 0.386719 Z M 8.617188 0.386719 "/></g></g></g><g fill="#737373" fill-opacity="1"><g transform="translate(154.918558, 305.303497)"><g><path d="M 0.304688 0 L 2.960938 0 L 4.042969 -3 L 10.472656 -3 L 11.554688 0 L 14.230469 0 L 9.167969 -14.457031 L 5.371094 -14.457031 Z M 4.59375 -4.921875 L 7.167969 -12.230469 L 7.351562 -12.230469 L 9.921875 -4.921875 Z M 4.59375 -4.921875 "/></g></g></g><g fill="#737373" fill-opacity="1"><g transform="translate(173.292609, 305.303497)"><g><path d="M 5.144531 0 L 7.71875 0 L 7.71875 -12.3125 L 12.558594 -12.3125 L 12.558594 -14.457031 L 0.328125 -14.457031 L 0.328125 -12.3125 L 5.144531 -12.3125 Z M 5.144531 0 "/></g></g></g><g fill="#737373" fill-opacity="1"><g transform="translate(190.013245, 305.303497)"><g><path d="M 1.46875 0 L 4.042969 0 L 4.042969 -14.457031 L 1.46875 -14.457031 Z M 1.46875 0 "/></g></g></g><g fill="#737373" fill-opacity="1"><g transform="translate(199.385383, 305.303497)"><g><path d="M 8.78125 0.386719 C 13.433594 0.386719 16.679688 -2.675781 16.679688 -7.226562 C 16.679688 -11.78125 13.433594 -14.863281 8.78125 -14.863281 C 4.125 -14.863281 0.878906 -11.78125 0.878906 -7.226562 C 0.878906 -2.675781 4.125 0.386719 8.78125 0.386719 Z M 8.78125 -1.757812 C 5.675781 -1.757812 3.472656 -4.023438 3.472656 -7.226562 C 3.472656 -10.453125 5.675781 -12.699219 8.78125 -12.699219 C 11.902344 -12.699219 14.109375 -10.453125 14.109375 -7.226562 C 14.109375 -4 11.902344 -1.757812 8.78125 -1.757812 Z M 8.78125 -1.757812 "/></g></g></g><g fill="#737373" fill-opacity="1"><g transform="translate(220.821298, 305.303497)"><g><path d="M 1.449219 0 L 3.878906 0 L 3.878906 -11.128906 L 4.042969 -11.128906 L 10.71875 0 L 13.578125 0 L 13.578125 -14.457031 L 11.167969 -14.457031 L 11.167969 -3.308594 L 11.003906 -3.308594 L 4.308594 -14.457031 L 1.449219 -14.457031 Z M 1.449219 0 "/></g></g></g><g fill="#737373" fill-opacity="1"><g transform="translate(239.726055, 305.303497)"><g/></g></g><g fill="#737373" fill-opacity="1"><g transform="translate(248.608301, 305.303497)"><g><path d="M 8.617188 0.386719 C 12.351562 0.386719 15.332031 -1.878906 15.804688 -5.003906 L 13.394531 -5.308594 C 12.964844 -3.308594 10.984375 -1.757812 8.699219 -1.757812 C 5.613281 -1.757812 3.472656 -4 3.472656 -7.226562 C 3.472656 -10.472656 5.59375 -12.699219 8.699219 -12.699219 C 10.964844 -12.699219 12.945312 -11.128906 13.375 -9.066406 L 15.78125 -9.351562 C 15.273438 -12.535156 12.292969 -14.863281 8.617188 -14.863281 C 4.125 -14.863281 0.898438 -11.71875 0.898438 -7.226562 C 0.898438 -2.757812 4.125 0.386719 8.617188 0.386719 Z M 8.617188 0.386719 "/></g></g></g><g fill="#737373" fill-opacity="1"><g transform="translate(269.166483, 305.303497)"><g><path d="M 1.449219 0 L 4.023438 0 L 4.023438 -6.453125 L 11.003906 -6.453125 L 11.003906 0 L 13.578125 0 L 13.578125 -14.457031 L 11.003906 -14.457031 L 11.003906 -8.535156 L 4.023438 -8.535156 L 4.023438 -14.457031 L 1.449219 -14.457031 Z M 1.449219 0 "/></g></g></g><g fill="#737373" fill-opacity="1"><g transform="translate(288.050849, 305.303497)"><g><path d="M 0.304688 0 L 2.960938 0 L 4.042969 -3 L 10.472656 -3 L 11.554688 0 L 14.230469 0 L 9.167969 -14.457031 L 5.371094 -14.457031 Z M 4.59375 -4.921875 L 7.167969 -12.230469 L 7.351562 -12.230469 L 9.921875 -4.921875 Z M 4.59375 -4.921875 "/></g></g></g><g fill="#737373" fill-opacity="1"><g transform="translate(306.4249, 305.303497)"><g><path d="M 5.144531 0 L 7.71875 0 L 7.71875 -12.3125 L 12.558594 -12.3125 L 12.558594 -14.457031 L 0.328125 -14.457031 L 0.328125 -12.3125 L 5.144531 -12.3125 Z M 5.144531 0 "/></g></g></g></svg>